# xmcd CD database file
# Copyright (C) 1997 Ti Kan
# 
# Track frame offsets:
#     182
#     13587
#     25390
#     38557
#     51855
#     64450
#     77702
#     90430
#     101960
#     113025
#     123102
#     134355
#     145585
#     158182
#     167852
#     174235
#     190052
#     200577
#     210380
#     214845
#     221395
# 
# Disc length: 3078 seconds
# 
# Revision: 1
# Processed by: cddbd v1.4b41PL1 Copyright (c) Steve Scherf et al.
# Submitted via: DiscPlay 4.0.3
# 
DISCID=230c0415
DTITLE=Hank Williams - Vol IV - I'm So Lonesome I Could Cry
DYEAR=1900
DGENRE=
TTITLE0=You're Gonna Change (Or I'm Gonna Leave)
TTITLE1=My Son Calls Another Man Daddy
TTITLE2=Wedding Bells
TTITLE3=I've Just Told Mama Goodbye
TTITLE4=I'm So Lonesome I Could Cry
TTITLE5=A House Without Love
TTITLE6=I Just Don't Like This Kind Of Living
TTITLE7=My Bucket's Got A Hole In It
TTITLE8=First Year Blues
TTITLE9=Are You Building A Temple In Heaven
TTITLE10=You Better Keep It On Your Mind
TTITLE11=A House Of Gold
TTITLE12=How Can You Refuse Him Now
TTITLE13=Fool About You
TTITLE14=Fool About You
TTITLE15=Thy Burdens Are Greater Than Mine
TTITLE16=No One Will Ever Know
TTITLE17=Waltz Of The Wind
TTITLE18=If You'll Be A Baby (To Me)
TTITLE19=When The Book Of Life Is Read
TTITLE20=We're Getting Closer To The Grave Each Day
EXTD=
EXTT0=
EXTT1=
EXTT2=
EXTT3=
EXTT4=
EXTT5=
EXTT6=
EXTT7=
EXTT8=
EXTT9=
EXTT10=
EXTT11=
EXTT12=
EXTT13=
EXTT14=
EXTT15=
EXTT16=
EXTT17=
EXTT18=
EXTT19=
EXTT20=
PLAYORDER=
